<svg width="25" height="24" viewBox="0 0 25 24" fill="none" xmlns="http://www.w3.org/2000/svg">
<path d="M22.3333 4.84999V16.74C22.3333 17.71 21.5433 18.6 20.5733 18.72L20.2633 18.76C18.6233 18.98 16.3133 19.66 14.4533 20.44C13.8033 20.71 13.0833 20.22 13.0833 19.51V5.59999C13.0833 5.22999 13.2933 4.88999 13.6233 4.70999C15.4533 3.71999 18.2233 2.83999 20.1033 2.67999H20.1633C21.3633 2.67999 22.3333 3.64999 22.3333 4.84999Z" fill="white"/>
<path d="M11.0432 4.70999C9.21324 3.71999 6.44324 2.83999 4.56324 2.67999H4.49324C3.29324 2.67999 2.32324 3.64999 2.32324 4.84999V16.74C2.32324 17.71 3.11324 18.6 4.08324 18.72L4.39324 18.76C6.03324 18.98 8.34324 19.66 10.2032 20.44C10.8532 20.71 11.5732 20.22 11.5732 19.51V5.59999C11.5732 5.21999 11.3732 4.88999 11.0432 4.70999ZM5.33324 7.73999H7.58324C7.99324 7.73999 8.33324 8.07999 8.33324 8.48999C8.33324 8.90999 7.99324 9.23999 7.58324 9.23999H5.33324C4.92324 9.23999 4.58324 8.90999 4.58324 8.48999C4.58324 8.07999 4.92324 7.73999 5.33324 7.73999ZM8.33324 12.24H5.33324C4.92324 12.24 4.58324 11.91 4.58324 11.49C4.58324 11.08 4.92324 10.74 5.33324 10.74H8.33324C8.74324 10.74 9.08324 11.08 9.08324 11.49C9.08324 11.91 8.74324 12.24 8.33324 12.24Z" fill="white"/>
</svg>
