<svg width="25" height="24" viewBox="0 0 25 24" fill="none" xmlns="http://www.w3.org/2000/svg">
<path d="M12.6666 2C7.15663 2 2.66663 6.49 2.66663 12C2.66663 17.51 7.15663 22 12.6666 22C18.1766 22 22.6666 17.51 22.6666 12C22.6666 6.49 18.1766 2 12.6666 2ZM17.0166 15.57C16.8766 15.81 16.6266 15.94 16.3666 15.94C16.2366 15.94 16.1066 15.91 15.9866 15.83L12.8866 13.98C12.1166 13.52 11.5466 12.51 11.5466 11.62V7.52C11.5466 7.11 11.8866 6.77 12.2966 6.77C12.7066 6.77 13.0466 7.11 13.0466 7.52V11.62C13.0466 11.98 13.3466 12.51 13.6566 12.69L16.7566 14.54C17.1166 14.75 17.2366 15.21 17.0166 15.57Z" fill="white"/>
</svg>
